# xmcd
#
# Track frame offsets:
#	150
#	12521
#	22332
#	33868
#	43845
#	57419
#	68022
#	81141
#	91671
#	102570
#	115317
#	127722
#
# Disc length: 1877 seconds
# Revision: 0
# Processed by: cddbd v1.5.2PL0 Copyright (c) Steve Scherf et al.
# Submitted via: dBpowerAMP V12.0
#
DISCID=9907530c
DTITLE=Ann J Morton - Willie I Will
DYEAR=2014
DGENRE=Country
TTITLE0=Good Lookin' Cowboy
TTITLE1=Don't Stay On Your Side Of The Bed
TTITLE2=My Empty Arms
TTITLE3=No One To Sleep With
TTITLE4=There Ain't No Doubt About It
TTITLE5=I'm In Deep Water
TTITLE6=Me and My Horse Named Daddy
TTITLE7=I'm Not in the Mood For Love
TTITLE8=I Like Being Lonely Even Less
TTITLE9=Never Should Have Come Here
TTITLE10=We Used To Kiss Each Other
TTITLE11=Willie I Will
EXTD=
EXTT0=
EXTT1=
EXTT2=
EXTT3=
EXTT4=
EXTT5=
EXTT6=
EXTT7=
EXTT8=
EXTT9=
EXTT10=
EXTT11=
PLAYORDER=
